# xmcd
#
# Track frame offsets:
#	150
#	19328
#	35453
#	54664
#	74536
#	88716
#	100865
#	119162
#	137576
#	151041
#	174268
#	201213
#	215317
#
# Disc length: 3224 seconds
#
# Revision: 2
# Processed by: cddbd v1.5.2PL0 Copyright (c) Steve Scherf et al.
# Submitted via: EZCDAudioConverter 7.1.0.1
#
DISCID=b40c960d
DTITLE=Blood Sweat and Tears - Classic Blood Sweat and Tears
DYEAR=1980
DGENRE=blues
TTITLE0=You've Made Me So Very Happy
TTITLE1=I Can't Quit Her
TTITLE2=Go Down Gamblin'
TTITLE3=Hi-de-ho
TTITLE4=Sometimes In Winter
TTITLE5=Without Her
TTITLE6=And When I Die
TTITLE7=Spinning Wheel
TTITLE8=Lisa Listen To Me
TTITLE9=Smiling Phases
TTITLE10=I Love You More Than You'll Ever Know
TTITLE11=Lucretia Macevil
TTITLE12=God Bless The Child
EXTD=
EXTT0=
EXTT1=
EXTT2=
EXTT3=
EXTT4=
EXTT5=
EXTT6=
EXTT7=
EXTT8=
EXTT9=
EXTT10=
EXTT11=
EXTT12=
PLAYORDER=
